<?xml version="1.0" encoding="UTF-8"?>
<svg id="Layer_2" data-name="Layer 2" xmlns="http://www.w3.org/2000/svg" viewBox="0 0 517.139 321.747">
  <g id="Layer_2-2" data-name="Layer 2">
    <g>
      <path d="M.113,318.68s239,18,238-68,13-132,13-132c0,0,36-28,46-1s-2,111,0,144,30,62,77,42,205-186,107-237,1-42,1-42l35-.612" style="fill: none; stroke: #000; stroke-miterlimit: 10; stroke-width: 3px;"/>
      <g>
        <path d="M168.463,163.364c1.404-.539,2.88-1.079,4.319-1.655l.469,2.16c-3.815,1.583-7.848,3.275-10.403,4.283-.036.288-.216.504-.432.611l-1.224-2.771c1.367-.432,3.096-1.044,4.967-1.764v-11.914h-4.355v-2.304h4.355v-8.604l3.024.216c-.036.252-.252.396-.721.469v7.919h4.067v2.304h-4.067v11.05ZM194.92,165.704v2.16h-10.618v6.875h-2.376v-6.875h-10.942v-2.16h10.942v-3.383h-7.344v-17.854h5.832c.575-1.079,1.188-2.411,1.548-3.348l3.023.721c-.108.216-.324.359-.756.359-.324.648-.828,1.476-1.296,2.268h8.531v7.703h-14.507v2.268h15.946v7.884h-8.387v.035h.504c-.036.217-.216.396-.72.469v2.879h10.618ZM189.125,146.411h-12.167v3.815h12.167v-3.815ZM176.958,156.418v3.959h13.57v-3.959h-13.57Z"/>
        <path d="M197.3,170.348c3.708-.647,9.539-1.871,15.118-3.06l.181,2.016c-5.04,1.224-10.403,2.412-13.751,3.168-.036.288-.216.468-.468.54l-1.08-2.664ZM212.166,143.315v2.268h-14.326v-2.268h14.326ZM211.267,149.255v9.755h-12.419v-9.755h12.419ZM201.764,160.485c.899,2.159,1.512,4.967,1.584,6.839l-2.124.54c-.072-1.872-.647-4.716-1.439-6.911l1.979-.468ZM209.036,156.958v-5.651h-8.063v5.651h8.063ZM210.619,161.025c-.107.216-.359.359-.756.359-.432,1.979-1.224,4.932-1.907,6.84-.396-.145-1.44-.576-1.836-.685.612-1.979,1.368-5.184,1.691-7.379l2.808.864ZM220.121,169.952c-.107.144-.324.252-.684.288-1.512,1.583-4.716,3.491-7.523,4.535-.359-.468-1.115-1.224-1.655-1.656,2.844-.972,6.011-2.808,7.486-4.391l2.376,1.224ZM214.363,148.931h5.039c.324-1.152.612-2.52.828-3.708h-7.092v-2.159h17.782v2.159h-8.135c-.252,1.08-.612,2.448-1.008,3.708h7.811v19.006h-15.226v-19.006ZM227.248,154.618v-3.744h-10.654v3.744h10.654ZM227.248,160.305v-3.852h-10.654v3.852h10.654ZM227.248,165.992v-3.852h-10.654v3.852h10.654ZM229.517,174.775c-1.296-1.296-4.032-3.312-6.228-4.68l1.872-1.188c2.123,1.296,4.895,3.203,6.335,4.535l-1.979,1.332Z"/>
      </g>
      <g>
        <path d="M331.74,17.966c-1.656,4.211-4.032,7.99-6.804,10.69l-2.088-1.368c2.592-2.483,5.075-5.939,6.516-10.187l2.376.864ZM339.407,12.351v17.134c0,4.031-3.168,3.995-8.531,3.923-.144-.647-.432-1.655-.792-2.375.828.035,4.859,0,5.256,0,1.008,0,1.476-.648,1.476-1.513V12.351h-12.238v-2.412h12.238V2.56l3.419.18c-.035.36-.287.648-.827.684v6.516h12.166v2.412h-12.166ZM345.849,16.886c2.628,2.915,5.651,7.127,7.596,10.475l-2.304,1.332c-1.764-3.312-4.932-7.919-7.344-10.655l2.052-1.151Z"/>
        <path d="M387.897,16.453h-12.166l.611.181c-.072.216-.324.396-.72.432-.972,6.695-3.42,12.671-11.123,16.45-.432-.468-1.331-1.332-1.943-1.8,7.487-3.6,9.575-8.639,10.402-15.263h-14.002v-2.411h28.94v2.411ZM384.333,6.303h-22.102v-2.411h22.102v2.411Z"/>
        <path d="M401.327,7.959c-.036.323-.36.54-.828.611-.216,9.683-1.008,18.502-6.551,24.945-.576-.432-1.44-.972-2.16-1.368,5.363-5.831,6.012-14.83,6.119-24.513l3.42.324ZM410.651,28.692c6.011-2.916,9.898-8.171,11.986-14.471.54.468,1.619,1.08,2.231,1.404-2.556,7.271-7.02,12.634-14.687,16.27-.107.288-.359.576-.611.72l-1.872-2.375.396-.54V3.279l3.347.18c-.035.324-.287.612-.791.685v24.549Z"/>
      </g>
    </g>
  </g>
</svg>